<svg xmlns="http://www.w3.org/2000/svg" xmlns:xlink="http://www.w3.org/1999/xlink" version="1.1" width="412px"
     height="272px" viewBox="-0.5 -0.5 412 272">
    <defs/>
    <g>
        <path d="M 290 240 L 348 211" fill="none" stroke="currentColor" stroke-miterlimit="10" pointer-events="stroke"/>
        <path d="M 344.3 216.76 L 349 210.5 L 341.17 210.5" fill="none" stroke="currentColor" stroke-miterlimit="10"
              pointer-events="all"/>
        <path d="M 230 240 L 172 211" fill="none" stroke="currentColor" stroke-miterlimit="10" pointer-events="stroke"/>
        <path d="M 178.83 210.5 L 171 210.5 L 175.7 216.76" fill="none" stroke="currentColor" stroke-miterlimit="10"
              pointer-events="all"/>
        <rect x="230" y="240" width="60" height="30" fill="none" stroke="none" pointer-events="all"/>
        <g transform="translate(-0.5 -0.5)">
            <text x="260" y="259" fill="currentColor" text-anchor="middle">Iso</text>
        </g>
        <path d="M 380 180 L 380 152.24" fill="none" stroke="currentColor" stroke-miterlimit="10"
              pointer-events="stroke"/>
        <path d="M 383.5 158.12 L 380 151.12 L 376.5 158.12" fill="none" stroke="currentColor" stroke-miterlimit="10"
              pointer-events="all"/>
        <path d="M 350 180 L 292 151" fill="none" stroke="currentColor" stroke-miterlimit="10" pointer-events="stroke"/>
        <path d="M 298.83 150.5 L 291 150.5 L 295.7 156.76" fill="none" stroke="currentColor" stroke-miterlimit="10"
              pointer-events="all"/>
        <rect x="350" y="180" width="60" height="30" fill="none" stroke="none" pointer-events="all"/>
        <g transform="translate(-0.5 -0.5)">
            <text x="380" y="199" fill="currentColor" text-anchor="middle">Lens</text>
        </g>
        <path d="M 140 180 L 140 152.24" fill="none" stroke="currentColor" stroke-miterlimit="10"
              pointer-events="stroke"/>
        <path d="M 143.5 158.12 L 140 151.12 L 136.5 158.12" fill="none" stroke="currentColor" stroke-miterlimit="10"
              pointer-events="all"/>
        <path d="M 170 180 L 228 151" fill="none" stroke="currentColor" stroke-miterlimit="10" pointer-events="stroke"/>
        <path d="M 224.3 156.76 L 229 150.5 L 221.17 150.5" fill="none" stroke="currentColor" stroke-miterlimit="10"
              pointer-events="all"/>
        <rect x="110" y="180" width="60" height="30" fill="none" stroke="none" pointer-events="all"/>
        <g transform="translate(-0.5 -0.5)">
            <text x="140" y="199" fill="currentColor" text-anchor="middle">Prism</text>
        </g>
        <path d="M 350 120 L 292 91" fill="none" stroke="currentColor" stroke-miterlimit="10" pointer-events="stroke"/>
        <path d="M 298.83 90.5 L 291 90.5 L 295.7 96.76" fill="none" stroke="currentColor" stroke-miterlimit="10"
              pointer-events="all"/>
        <rect x="350" y="120" width="60" height="30" fill="none" stroke="none" pointer-events="all"/>
        <g transform="translate(-0.5 -0.5)">
            <text x="380" y="139" fill="currentColor" text-anchor="middle">Getter</text>
        </g>
        <rect x="110" y="120" width="60" height="30" fill="none" stroke="none" pointer-events="all"/>
        <g transform="translate(-0.5 -0.5)">
            <text x="140" y="139" fill="currentColor" text-anchor="middle">Review</text>
        </g>
        <path d="M 260 120 L 260 92.24" fill="none" stroke="currentColor" stroke-miterlimit="10"
              pointer-events="stroke"/>
        <path d="M 263.5 98.12 L 260 91.12 L 256.5 98.12" fill="none" stroke="currentColor" stroke-miterlimit="10"
              pointer-events="all"/>
        <path d="M 230 120 L 172 91" fill="none" stroke="currentColor" stroke-miterlimit="10" pointer-events="stroke"/>
        <path d="M 178.83 90.5 L 171 90.5 L 175.7 96.76" fill="none" stroke="currentColor" stroke-miterlimit="10"
              pointer-events="all"/>
        <rect x="210" y="120" width="100" height="30" fill="none" stroke="none" pointer-events="all"/>
        <g transform="translate(-0.5 -0.5)">
            <text x="260" y="139" fill="currentColor" text-anchor="middle">AffineTraversal</text>
        </g>
        <path d="M 230 60 L 172 31" fill="none" stroke="currentColor" stroke-miterlimit="10" pointer-events="stroke"/>
        <path d="M 178.83 30.5 L 171 30.5 L 175.7 36.76" fill="none" stroke="currentColor" stroke-miterlimit="10"
              pointer-events="all"/>
        <rect x="230" y="60" width="60" height="30" fill="none" stroke="none" pointer-events="all"/>
        <g transform="translate(-0.5 -0.5)">
            <text x="260" y="79" fill="currentColor" text-anchor="middle">AffineFold</text>
        </g>
        <path d="M 112.5 60 L 59.46 31.07" fill="none" stroke="currentColor" stroke-miterlimit="10"
              pointer-events="stroke"/>
        <path d="M 66.3 30.81 L 58.48 30.54 L 62.95 36.96" fill="none" stroke="currentColor" stroke-miterlimit="10"
              pointer-events="all"/>
        <path d="M 140 60 L 140 32.24" fill="none" stroke="currentColor" stroke-miterlimit="10"
              pointer-events="stroke"/>
        <path d="M 143.5 38.12 L 140 31.12 L 136.5 38.12" fill="none" stroke="currentColor" stroke-miterlimit="10"
              pointer-events="all"/>
        <rect x="110" y="60" width="60" height="30" fill="none" stroke="none" pointer-events="all"/>
        <g transform="translate(-0.5 -0.5)">
            <text x="140" y="79" fill="currentColor" text-anchor="middle">Traversal</text>
        </g>
        <rect x="110" y="0" width="60" height="30" fill="none" stroke="none" pointer-events="all"/>
        <g transform="translate(-0.5 -0.5)">
            <text x="140" y="19" fill="currentColor" text-anchor="middle">Fold</text>
        </g>
        <rect x="0" y="0" width="60" height="30" fill="none" stroke="none" pointer-events="all"/>
        <g transform="translate(-0.5 -0.5)">
            <text x="30" y="19" fill="currentColor" text-anchor="middle">Setter</text>
        </g>
    </g>
    <switch>
        <g requiredFeatures="http://www.w3.org/TR/SVG11/feature#Extensibility"/>
        <a transform="translate(0,-5)" xlink:href="https://www.diagrams.net/doc/faq/svg-export-text-problems"
           target="_blank">
            <text text-anchor="middle" font-size="10px" x="50%" y="100%">Text is not SVG - cannot display</text>
        </a>
    </switch>
</svg>