<svg xmlns="http://www.w3.org/2000/svg" width="648.68" height="475.436"><defs><clipPath clipPathUnits="userSpaceOnUse" id="y"><path style="stroke-width:.767244" d="M0 0h648.68v475.436H0z"/></clipPath><clipPath clipPathUnits="userSpaceOnUse" id="W"><path style="stroke-width:.767244" d="M0 0h648.68v475.436H0z"/></clipPath><clipPath clipPathUnits="userSpaceOnUse" id="U"><path style="stroke-width:.767244" d="M0 0h648.68v475.436H0z"/></clipPath><clipPath clipPathUnits="userSpaceOnUse" id="T"><path style="stroke-width:.767244" d="M0 0h648.68v475.436H0z"/></clipPath><clipPath clipPathUnits="userSpaceOnUse" id="S"><path style="stroke-width:.767244" d="M0 0h648.68v475.436H0z"/></clipPath><clipPath clipPathUnits="userSpaceOnUse" id="R"><path style="stroke-width:.767244" d="M0 0h648.68v475.436H0z"/></clipPath><clipPath clipPathUnits="userSpaceOnUse" id="Q"><path style="stroke-width:.767244" d="M0 0h648.68v475.436H0z"/></clipPath><clipPath clipPathUnits="userSpaceOnUse" id="P"><path style="stroke-width:.767244" d="M0 0h648.68v475.436H0z"/></clipPath><clipPath clipPathUnits="userSpaceOnUse" id="O"><path style="stroke-width:.767244" d="M0 0h648.68v475.436H0z"/></clipPath><clipPath clipPathUnits="userSpaceOnUse" id="N"><path style="stroke-width:.767244" d="M0 0h648.68v475.436H0z"/></clipPath><clipPath clipPathUnits="userSpaceOnUse" id="M"><path style="stroke-width:.767244" d="M0 0h648.68v475.436H0z"/></clipPath><clipPath clipPathUnits="userSpaceOnUse" id="L"><path style="stroke-width:.767244" d="M0 0h648.68v475.436H0z"/></clipPath><clipPath clipPathUnits="userSpaceOnUse" id="K"><path style="stroke-width:.767244" d="M0 0h648.68v475.436H0z"/></clipPath><clipPath clipPathUnits="userSpaceOnUse" id="J"><path style="stroke-width:.767244" d="M0 0h648.68v475.436H0z"/></clipPath><clipPath clipPathUnits="userSpaceOnUse" id="I"><path style="stroke-width:.767244" d="M0 0h648.68v475.436H0z"/></clipPath><clipPath clipPathUnits="userSpaceOnUse" id="H"><path style="stroke-width:.767244" d="M0 0h648.68v475.436H0z"/></clipPath><clipPath clipPathUnits="userSpaceOnUse" id="G"><path style="stroke-width:.767244" d="M0 0h648.68v475.436H0z"/></clipPath><clipPath clipPathUnits="userSpaceOnUse" id="F"><path style="stroke-width:.767244" d="M0 0h648.68v475.436H0z"/></clipPath><clipPath clipPathUnits="userSpaceOnUse" id="E"><path style="stroke-width:.767244" d="M0 0h648.68v475.436H0z"/></clipPath><clipPath clipPathUnits="userSpaceOnUse" id="D"><path style="stroke-width:.767244" d="M0 0h648.68v475.436H0z"/></clipPath><clipPath clipPathUnits="userSpaceOnUse" id="C"><path style="stroke-width:.767244" d="M0 0h648.68v475.436H0z"/></clipPath><clipPath clipPathUnits="userSpaceOnUse" id="B"><path style="stroke-width:.767244" d="M0 0h648.68v475.436H0z"/></clipPath><clipPath clipPathUnits="userSpaceOnUse" id="A"><path style="stroke-width:.767244" d="M0 0h648.68v475.436H0z"/></clipPath><clipPath clipPathUnits="userSpaceOnUse" id="z"><path style="stroke-width:.767244" d="M0 0h648.68v475.436H0z"/></clipPath><clipPath clipPathUnits="userSpaceOnUse" id="V"><path style="stroke-width:.767244" d="M0 0h648.68v475.436H0z"/></clipPath><clipPath clipPathUnits="userSpaceOnUse" id="x"><path style="stroke-width:.767244" d="M0 0h648.68v475.436H0z"/></clipPath><clipPath clipPathUnits="userSpaceOnUse" id="w"><path style="stroke-width:.767244" d="M0 0h648.68v475.436H0z"/></clipPath><clipPath clipPathUnits="userSpaceOnUse" id="v"><path style="stroke-width:.767244" d="M0 0h648.68v475.436H0z"/></clipPath><clipPath clipPathUnits="userSpaceOnUse" id="u"><path style="stroke-width:.767244" d="M0 0h648.68v475.436H0z"/></clipPath><clipPath clipPathUnits="userSpaceOnUse" id="t"><path style="stroke-width:.767244" d="M0 0h648.68v475.436H0z"/></clipPath><clipPath clipPathUnits="userSpaceOnUse" id="s"><path style="stroke-width:.767244" d="M0 0h648.68v475.436H0z"/></clipPath><clipPath clipPathUnits="userSpaceOnUse" id="r"><path style="stroke-width:.767244" d="M0 0h648.68v475.436H0z"/></clipPath><clipPath clipPathUnits="userSpaceOnUse" id="q"><path style="stroke-width:.767244" d="M0 0h648.68v475.436H0z"/></clipPath><clipPath clipPathUnits="userSpaceOnUse" id="p"><path style="stroke-width:.767244" d="M0 0h648.68v475.436H0z"/></clipPath><clipPath clipPathUnits="userSpaceOnUse" id="o"><path style="stroke-width:.767244" d="M0 0h648.68v475.436H0z"/></clipPath><clipPath clipPathUnits="userSpaceOnUse" id="n"><path style="stroke-width:.767244" d="M0 0h648.68v475.436H0z"/></clipPath><clipPath clipPathUnits="userSpaceOnUse" id="m"><path style="stroke-width:.767244" d="M0 0h648.68v475.436H0z"/></clipPath><clipPath clipPathUnits="userSpaceOnUse" id="l"><path style="stroke-width:.767244" d="M0 0h648.68v475.436H0z"/></clipPath><clipPath clipPathUnits="userSpaceOnUse" id="k"><path style="stroke-width:.767244" d="M0 0h648.68v475.436H0z"/></clipPath><clipPath clipPathUnits="userSpaceOnUse" id="j"><path style="stroke-width:.767244" d="M0 0h648.68v475.436H0z"/></clipPath><clipPath clipPathUnits="userSpaceOnUse" id="i"><path style="stroke-width:.767244" d="M0 0h648.68v475.436H0z"/></clipPath><clipPath clipPathUnits="userSpaceOnUse" id="h"><path style="stroke-width:.767244" d="M0 0h648.68v475.436H0z"/></clipPath><clipPath clipPathUnits="userSpaceOnUse" id="g"><path style="stroke-width:.767244" d="M0 0h648.68v475.436H0z"/></clipPath><clipPath clipPathUnits="userSpaceOnUse" id="f"><path style="stroke-width:.767244" d="M0 0h648.68v475.436H0z"/></clipPath><clipPath clipPathUnits="userSpaceOnUse" id="e"><path style="stroke-width:.767244" d="M0 0h648.68v475.436H0z"/></clipPath><clipPath clipPathUnits="userSpaceOnUse" id="d"><path style="stroke-width:.767244" d="M0 0h648.68v475.436H0z"/></clipPath><clipPath clipPathUnits="userSpaceOnUse" id="c"><path style="stroke-width:.767244" d="M0 0h648.68v475.436H0z"/></clipPath><clipPath clipPathUnits="userSpaceOnUse" id="b"><path style="stroke-width:.767244" d="M0 0h648.68v475.436H0z"/></clipPath><clipPath clipPathUnits="userSpaceOnUse" id="a"><path style="stroke-width:.767244" d="M0 0h648.68v475.436H0z"/></clipPath></defs><path fill="#fff" clip-path="url(#a)" d="M-307.114-243.132h1320v836h-1320z"/><path fill="none" stroke="silver" paint-order="fill stroke markers" d="M-252.614-242.632v836m0-836v836m78-836v836m77-836v836m77-836v836m77-836v836m154-836v836m77-836v836m77-836v836m77-836v836m77-836v836m77-836v836m77-836v836m77-836v836m77-836v836m77-836v836m77-836v836" stroke-linecap="round" stroke-linejoin="round" stroke-miterlimit="10" clip-path="url(#b)"/><path fill="none" stroke="silver" paint-order="fill stroke markers" d="M-298.614-242.632v836m16-836v836m15-836v836m31-836v836m15-836v836m16-836v836m15-836v836m31-836v836m15-836v836m16-836v836m15-836v836m31-836v836m15-836v836m16-836v836m15-836v836m31-836v836m15-836v836m16-836v836m15-836v836m31-836v836m16-836v836m15-836v836m15-836v836m31-836v836m16-836v836m15-836v836m15-836v836m31-836v836m16-836v836m15-836v836m15-836v836m31-836v836m16-836v836m15-836v836m16-836v836m30-836v836m16-836v836m15-836v836m16-836v836m30-836v836m16-836v836m15-836v836m16-836v836m30-836v836m16-836v836m15-836v836m16-836v836m31-836v836m15-836v836m15-836v836m16-836v836m31-836v836m15-836v836m15-836v836m16-836v836m31-836v836m15-836v836m15-836v836m16-836v836m31-836v836m15-836v836m16-836v836m15-836v836m31-836v836m15-836v836m16-836v836m15-836v836m31-836v836m15-836v836" stroke-opacity=".235" stroke-linecap="round" stroke-linejoin="round" stroke-miterlimit="10" clip-path="url(#c)"/><path fill="none" stroke="silver" paint-order="fill stroke markers" d="M-306.614-192.632h1320m-1320 0h1320m-1320 77h1320m-1320 77h1320m-1320 77h1320m-1320 77h1320m-1320 77h1320m-1320 77h1320m-1320 77h1320m-1320 154h1320m-1320 77h1320" stroke-linecap="round" stroke-linejoin="round" stroke-miterlimit="10" clip-path="url(#d)"/><path fill="none" stroke="silver" paint-order="fill stroke markers" d="M-306.614-239.632h1320m-1320 0h1320m-1320 16h1320m-1320 15h1320m-1320 31h1320m-1320 15h1320m-1320 16h1320m-1320 15h1320m-1320 31h1320m-1320 16h1320m-1320 15h1320m-1320 15h1320m-1320 31h1320m-1320 16h1320m-1320 15h1320m-1320 15h1320m-1320 31h1320m-1320 16h1320m-1320 15h1320m-1320 15h1320m-1320 31h1320m-1320 16h1320m-1320 15h1320m-1320 16h1320m-1320 30h1320m-1320 16h1320m-1320 15h1320m-1320 16h1320m-1320 30h1320m-1320 16h1320m-1320 15h1320m-1320 16h1320m-1320 30h1320m-1320 16h1320m-1320 15h1320m-1320 16h1320m-1320 31h1320m-1320 15h1320m-1320 15h1320m-1320 16h1320m-1320 31h1320m-1320 15h1320m-1320 15h1320m-1320 16h1320" stroke-opacity=".235" stroke-linecap="round" stroke-linejoin="round" stroke-miterlimit="10" clip-path="url(#e)"/><path fill="none" stroke="#000" paint-order="fill stroke markers" d="M133.386-240.632v834" stroke-miterlimit="10" clip-path="url(#f)"/><path fill="none" stroke="#000" paint-order="fill stroke markers" d="M-306.614 423.368h1318" stroke-miterlimit="10" clip-path="url(#g)"/><text font-family="geogebra-sans-serif, sans-serif" font-size="12" text-decoration="normal" x="44.886" y="438.868" dominant-baseline="alphabetic" clip-path="url(#h)">–0.2</text><text fill="none" stroke="#fff" font-family="geogebra-sans-serif, sans-serif" font-size="12" text-decoration="normal" x="44.886" y="438.868" dominant-baseline="alphabetic" stroke-linejoin="bevel" stroke-miterlimit="10" stroke-width="3" clip-path="url(#i)">–0.2</text><text font-family="geogebra-sans-serif, sans-serif" font-size="12" text-decoration="normal" x="44.886" y="438.868" dominant-baseline="alphabetic" clip-path="url(#j)">–0.2</text><text font-family="geogebra-sans-serif, sans-serif" font-size="12" text-decoration="normal" x="201.886" y="438.868" dominant-baseline="alphabetic" clip-path="url(#k)">0.2</text><text fill="none" stroke="#fff" font-family="geogebra-sans-serif, sans-serif" font-size="12" text-decoration="normal" x="201.886" y="438.868" dominant-baseline="alphabetic" stroke-linejoin="bevel" stroke-miterlimit="10" stroke-width="3" clip-path="url(#l)">0.2</text><text font-family="geogebra-sans-serif, sans-serif" font-size="12" text-decoration="normal" x="201.886" y="438.868" dominant-baseline="alphabetic" clip-path="url(#m)">0.2</text><text font-family="geogebra-sans-serif, sans-serif" font-size="12" text-decoration="normal" x="278.886" y="438.868" dominant-baseline="alphabetic" clip-path="url(#n)">0.4</text><text fill="none" stroke="#fff" font-family="geogebra-sans-serif, sans-serif" font-size="12" text-decoration="normal" x="278.886" y="438.868" dominant-baseline="alphabetic" stroke-linejoin="bevel" stroke-miterlimit="10" stroke-width="3" clip-path="url(#o)">0.4</text><text font-family="geogebra-sans-serif, sans-serif" font-size="12" text-decoration="normal" x="278.886" y="438.868" dominant-baseline="alphabetic" clip-path="url(#p)">0.4</text><text font-family="geogebra-sans-serif, sans-serif" font-size="12" text-decoration="normal" x="355.886" y="438.868" dominant-baseline="alphabetic" clip-path="url(#q)">0.6</text><text fill="none" stroke="#fff" font-family="geogebra-sans-serif, sans-serif" font-size="12" text-decoration="normal" x="355.886" y="438.868" dominant-baseline="alphabetic" stroke-linejoin="bevel" stroke-miterlimit="10" stroke-width="3" clip-path="url(#r)">0.6</text><text font-family="geogebra-sans-serif, sans-serif" font-size="12" text-decoration="normal" x="355.886" y="438.868" dominant-baseline="alphabetic" clip-path="url(#s)">0.6</text><text font-family="geogebra-sans-serif, sans-serif" font-size="12" text-decoration="normal" x="432.886" y="438.868" dominant-baseline="alphabetic" clip-path="url(#t)">0.8</text><text fill="none" stroke="#fff" font-family="geogebra-sans-serif, sans-serif" font-size="12" text-decoration="normal" x="432.886" y="438.868" dominant-baseline="alphabetic" stroke-linejoin="bevel" stroke-miterlimit="10" stroke-width="3" clip-path="url(#u)">0.8</text><text font-family="geogebra-sans-serif, sans-serif" font-size="12" text-decoration="normal" x="432.886" y="438.868" dominant-baseline="alphabetic" clip-path="url(#v)">0.8</text><text font-family="geogebra-sans-serif, sans-serif" font-size="12" text-decoration="normal" x="515.886" y="438.868" dominant-baseline="alphabetic" clip-path="url(#w)">1</text><text fill="none" stroke="#fff" font-family="geogebra-sans-serif, sans-serif" font-size="12" text-decoration="normal" x="515.886" y="438.868" dominant-baseline="alphabetic" stroke-linejoin="bevel" stroke-miterlimit="10" stroke-width="3" clip-path="url(#x)">1</text><text font-family="geogebra-sans-serif, sans-serif" font-size="12" text-decoration="normal" x="515.886" y="438.868" dominant-baseline="alphabetic" clip-path="url(#y)">1</text><text font-family="geogebra-sans-serif, sans-serif" font-size="12" text-decoration="normal" x="586.886" y="438.868" dominant-baseline="alphabetic" clip-path="url(#z)">1.2</text><text fill="none" stroke="#fff" font-family="geogebra-sans-serif, sans-serif" font-size="12" text-decoration="normal" x="586.886" y="438.868" dominant-baseline="alphabetic" stroke-linejoin="bevel" stroke-miterlimit="10" stroke-width="3" clip-path="url(#A)">1.2</text><text font-family="geogebra-sans-serif, sans-serif" font-size="12" text-decoration="normal" x="586.886" y="438.868" dominant-baseline="alphabetic" clip-path="url(#B)">1.2</text><text font-family="geogebra-sans-serif, sans-serif" font-size="12" text-decoration="normal" x="108.886" y="350.868" dominant-baseline="alphabetic" clip-path="url(#C)">0.2</text><text fill="none" stroke="#fff" font-family="geogebra-sans-serif, sans-serif" font-size="12" text-decoration="normal" x="108.886" y="350.868" dominant-baseline="alphabetic" stroke-linejoin="bevel" stroke-miterlimit="10" stroke-width="3" clip-path="url(#D)">0.2</text><text font-family="geogebra-sans-serif, sans-serif" font-size="12" text-decoration="normal" x="108.886" y="350.868" dominant-baseline="alphabetic" clip-path="url(#E)">0.2</text><text font-family="geogebra-sans-serif, sans-serif" font-size="12" text-decoration="normal" x="108.886" y="273.868" dominant-baseline="alphabetic" clip-path="url(#F)">0.4</text><text fill="none" stroke="#fff" font-family="geogebra-sans-serif, sans-serif" font-size="12" text-decoration="normal" x="108.886" y="273.868" dominant-baseline="alphabetic" stroke-linejoin="bevel" stroke-miterlimit="10" stroke-width="3" clip-path="url(#G)">0.4</text><text font-family="geogebra-sans-serif, sans-serif" font-size="12" text-decoration="normal" x="108.886" y="273.868" dominant-baseline="alphabetic" clip-path="url(#H)">0.4</text><text font-family="geogebra-sans-serif, sans-serif" font-size="12" text-decoration="normal" x="108.886" y="196.868" dominant-baseline="alphabetic" clip-path="url(#I)">0.6</text><text fill="none" stroke="#fff" font-family="geogebra-sans-serif, sans-serif" font-size="12" text-decoration="normal" x="108.886" y="196.868" dominant-baseline="alphabetic" stroke-linejoin="bevel" stroke-miterlimit="10" stroke-width="3" clip-path="url(#J)">0.6</text><text font-family="geogebra-sans-serif, sans-serif" font-size="12" text-decoration="normal" x="108.886" y="196.868" dominant-baseline="alphabetic" clip-path="url(#K)">0.6</text><text font-family="geogebra-sans-serif, sans-serif" font-size="12" text-decoration="normal" x="108.886" y="119.868" dominant-baseline="alphabetic" clip-path="url(#L)">0.8</text><text fill="none" stroke="#fff" font-family="geogebra-sans-serif, sans-serif" font-size="12" text-decoration="normal" x="108.886" y="119.868" dominant-baseline="alphabetic" stroke-linejoin="bevel" stroke-miterlimit="10" stroke-width="3" clip-path="url(#M)">0.8</text><text font-family="geogebra-sans-serif, sans-serif" font-size="12" text-decoration="normal" x="108.886" y="119.868" dominant-baseline="alphabetic" clip-path="url(#N)">0.8</text><text font-family="geogebra-sans-serif, sans-serif" font-size="12" text-decoration="normal" x="118.886" y="42.868" dominant-baseline="alphabetic" clip-path="url(#O)">1</text><text fill="none" stroke="#fff" font-family="geogebra-sans-serif, sans-serif" font-size="12" text-decoration="normal" x="118.886" y="42.868" dominant-baseline="alphabetic" stroke-linejoin="bevel" stroke-miterlimit="10" stroke-width="3" clip-path="url(#P)">1</text><text font-family="geogebra-sans-serif, sans-serif" font-size="12" text-decoration="normal" x="118.886" y="42.868" dominant-baseline="alphabetic" clip-path="url(#Q)">1</text><text font-family="geogebra-sans-serif, sans-serif" font-size="12" text-decoration="normal" x="118.886" y="438.868" dominant-baseline="alphabetic" clip-path="url(#R)">0</text><text fill="none" stroke="#fff" font-family="geogebra-sans-serif, sans-serif" font-size="12" text-decoration="normal" x="118.886" y="438.868" dominant-baseline="alphabetic" stroke-linejoin="bevel" stroke-miterlimit="10" stroke-width="3" clip-path="url(#S)">0</text><text font-family="geogebra-sans-serif, sans-serif" font-size="12" text-decoration="normal" x="118.886" y="438.868" dominant-baseline="alphabetic" clip-path="url(#T)">0</text><path fill="none" stroke="#006400" paint-order="fill stroke markers" d="M-307.114 423.501H156.948l5.157-.002 5.156-.012 5.156-.05 5.156-.14 5.157-.307 5.156-.57 5.156-.932 5.156-1.39 5.157-1.933 5.156-2.54 5.156-3.188 5.156-3.862 5.157-4.538 5.156-5.203 5.156-5.84 5.156-6.44 5.157-6.996 5.156-7.503 5.156-7.959 5.156-8.364 5.157-8.72 5.156-9.027 5.156-9.292 5.156-9.517 5.157-9.705 5.156-9.86 5.156-9.99 2.578-5.033 2.578-5.057 2.579-5.077 2.578-5.094 2.578-5.11 2.578-5.122 2.578-5.132 2.578-5.142 2.578-5.147 2.578-5.153 2.579-5.155 2.578-5.156 2.578-5.156 2.578-5.152 2.578-5.148 2.578-5.14 2.578-5.133 2.578-5.122 2.579-5.11 2.578-5.094 2.578-5.076 2.578-5.057 2.578-5.033 2.578-5.009 5.156-9.927 5.157-9.786 5.156-9.614 5.156-9.408 5.156-9.163 5.157-8.877 5.156-8.546 5.156-8.165 5.156-7.735 5.157-7.252 5.156-6.72 5.156-6.142 5.156-5.522 5.157-4.869 5.156-4.196 5.156-3.52 5.156-2.855 5.157-2.225 5.156-1.65 5.156-1.147 5.156-.736 5.157-.424 5.156-.212 5.156-.086 5.156-.026 5.157-.005H1012.886" stroke-opacity=".698" stroke-linecap="round" stroke-linejoin="round" stroke-miterlimit="10" stroke-width="2.5" clip-path="url(#U)"/><path fill="none" stroke="#c00" paint-order="fill stroke markers" d="M-307.114 423.501H133.1l.644-.594 2.578-2.578 5.157-5.156 5.156-5.156 5.156-5.157 5.156-5.156 5.157-5.156 5.156-5.156 5.156-5.157 5.156-5.156 5.157-5.156 5.156-5.156 5.156-5.157 5.156-5.156 5.157-5.156 5.156-5.156 5.156-5.157 5.156-5.156 5.157-5.156 5.156-5.156 5.156-5.157 5.156-5.156 5.157-5.156 5.156-5.156 5.156-5.157 5.156-5.156 5.157-5.156 5.156-5.156 5.156-5.157 5.156-5.156 5.157-5.156 5.156-5.156 5.156-5.157 5.156-5.156 5.157-5.156 5.156-5.156 5.156-5.157 5.156-5.156 5.157-5.156 5.156-5.156 5.156-5.157 5.156-5.156 5.157-5.156 5.156-5.156 5.156-5.157 5.156-5.156 5.157-5.156 5.156-5.156 5.156-5.157 5.156-5.156 5.157-5.156 5.156-5.156 5.156-5.157 5.156-5.156 5.157-5.156 5.156-5.156 5.156-5.157 5.156-5.156 5.157-5.156 5.156-5.156 5.156-5.157 5.156-5.156 5.157-5.156 5.156-5.156 5.156-5.157 5.156-5.156 5.157-5.156 5.156-5.156 5.156-5.157 5.156-5.156 5.157-5.156 5.156-5.156 5.156-5.157 5.156-5.156 5.157-5.156 5.156-5.156.644-.562H1012.886" stroke-opacity=".698" stroke-linecap="round" stroke-linejoin="round" stroke-miterlimit="10" stroke-width="2.5" clip-path="url(#V)"/><path fill="none" stroke="#c6f" paint-order="fill stroke markers" d="M-307.114 423.501H136.323l5.157-.02 5.156-.174 5.156-.502 5.156-.933 5.157-1.41 5.156-1.892 5.156-2.365 5.156-2.816 5.157-3.242 5.156-3.642 5.156-4.014 5.156-4.361 5.157-4.683 5.156-4.98 5.156-5.257 5.156-5.512 5.157-5.75 5.156-5.966 5.156-6.169 5.156-6.354 5.157-6.525 5.156-6.682 5.156-6.826 5.156-6.956 5.157-7.076 5.156-7.183 5.156-7.281 5.156-7.368 5.157-7.444 5.156-7.512 5.156-7.57 5.156-7.618 5.157-7.658 5.156-7.69 5.156-7.713 5.156-7.728 5.157-7.734 5.156-7.731 5.156-7.721 5.156-7.703 5.157-7.675 5.156-7.64 5.156-7.594 5.156-7.542 5.157-7.478 5.156-7.407 5.156-7.325 5.156-7.233 5.157-7.13 5.156-7.017 5.156-6.892 5.156-6.754 5.157-6.604 5.156-6.44 5.156-6.263 5.156-6.068 5.157-5.86 5.156-5.63 5.156-5.386 5.156-5.12 5.157-4.832 5.156-4.523 5.156-4.188 5.156-3.83 5.157-3.443 5.156-3.03 5.156-2.59 5.156-2.128 5.157-1.648 5.156-1.166 5.156-.706 5.156-.318 5.157-.073 5.156-.002H1012.886" stroke-opacity=".698" stroke-linecap="round" stroke-linejoin="round" stroke-miterlimit="10" stroke-width="2.5" clip-path="url(#W)"/></svg>